{"header":{"formatType":1,"trackCount":1,"ticksPerBeat":1392},"tracks":[[{"deltaTime":0,"type":"meta","subtype":"setTempo","microsecondsPerBeat":1000000},{"deltaTime":0,"channel":0,"type":"channel","subtype":"programChange","programNumber":4},{"deltaTime":0,"channel":0,"type":"channel","noteNumber":62,"velocity":101,"subtype":"noteOn"},{"deltaTime":0,"channel":0,"type":"channel","noteNumber":70,"velocity":101,"subtype":"noteOn"},{"deltaTime":0,"channel":0,"type":"channel","noteNumber":74,"velocity":101,"subtype":"noteOn"},{"deltaTime":120,"channel":0,"type":"channel","noteNumber":74,"velocity":0,"subtype":"noteOff"},{"deltaTime":360,"channel":0,"type":"channel","noteNumber":62,"velocity":0,"subtype":"noteOff"},{"deltaTime":0,"channel":0,"type":"channel","noteNumber":70,"velocity":0,"subtype":"noteOff"},{"deltaTime":0,"channel":0,"type":"channel","noteNumber":74,"velocity":98,"subtype":"noteOn"},{"deltaTime":240,"channel":0,"type":"channel","noteNumber":53,"velocity":101,"subtype":"noteOn"},{"deltaTime":240,"channel":0,"type":"channel","noteNumber":74,"velocity":0,"subtype":"noteOff"},{"deltaTime":240,"channel":0,"type":"channel","noteNumber":53,"velocity":0,"subtype":"noteOff"},{"deltaTime":240,"channel":0,"type":"channel","noteNumber":67,"velocity":101,"subtype":"noteOn"},{"deltaTime":0,"channel":0,"type":"channel","noteNumber":70,"velocity":101,"subtype":"noteOn"},{"deltaTime":120,"channel":0,"type":"channel","noteNumber":70,"velocity":0,"subtype":"noteOff"},{"deltaTime":360,"channel":0,"type":"channel","noteNumber":67,"velocity":0,"subtype":"noteOff"},{"deltaTime":240,"channel":0,"type":"channel","noteNumber":77,"velocity":101,"subtype":"noteOn"},{"deltaTime":480,"channel":0,"type":"channel","noteNumber":77,"velocity":0,"subtype":"noteOff"},{"deltaTime":0,"channel":0,"type":"channel","noteNumber":55,"velocity":98,"subtype":"noteOn"},{"deltaTime":480,"channel":0,"type":"channel","noteNumber":55,"velocity":0,"subtype":"noteOff"},{"deltaTime":240,"channel":0,"type":"channel","noteNumber":53,"velocity":98,"subtype":"noteOn"},{"deltaTime":120,"channel":0,"type":"channel","noteNumber":53,"velocity":0,"subtype":"noteOff"},{"deltaTime":600,"channel":0,"type":"channel","noteNumber":57,"velocity":98,"subtype":"noteOn"},{"deltaTime":240,"channel":0,"type":"channel","noteNumber":53,"velocity":101,"subtype":"noteOn"},{"deltaTime":0,"channel":0,"type":"channel","noteNumber":55,"velocity":101,"subtype":"noteOn"},{"deltaTime":0,"channel":0,"type":"channel","noteNumber":60,"velocity":101,"subtype":"noteOn"},{"deltaTime":240,"channel":0,"type":"channel","noteNumber":57,"velocity":0,"subtype":"noteOff"},{"deltaTime":240,"channel":0,"type":"channel","noteNumber":53,"velocity":0,"subtype":"noteOff"},{"deltaTime":0,"channel":0,"type":"channel","noteNumber":55,"velocity":0,"subtype":"noteOff"},{"deltaTime":0,"channel":0,"type":"channel","noteNumber":60,"velocity":0,"subtype":"noteOff"},{"deltaTime":240,"channel":0,"type":"channel","noteNumber":53,"velocity":101,"subtype":"noteOn"},{"deltaTime":0,"channel":0,"type":"channel","noteNumber":65,"velocity":101,"subtype":"noteOn"},{"deltaTime":0,"channel":0,"type":"channel","noteNumber":69,"velocity":101,"subtype":"noteOn"},{"deltaTime":0,"channel":0,"type":"channel","noteNumber":77,"velocity":101,"subtype":"noteOn"},{"deltaTime":120,"channel":0,"type":"channel","noteNumber":77,"velocity":0,"subtype":"noteOff"},{"deltaTime":360,"channel":0,"type":"channel","noteNumber":53,"velocity":0,"subtype":"noteOff"},{"deltaTime":0,"channel":0,"type":"channel","noteNumber":65,"velocity":0,"subtype":"noteOff"},{"deltaTime":0,"channel":0,"type":"channel","noteNumber":69,"velocity":0,"subtype":"noteOff"},{"deltaTime":240,"channel":0,"type":"channel","noteNumber":69,"velocity":101,"subtype":"noteOn"},{"deltaTime":480,"channel":0,"type":"channel","noteNumber":69,"velocity":0,"subtype":"noteOff"},{"deltaTime":0,"channel":0,"type":"channel","noteNumber":72,"velocity":98,"subtype":"noteOn"},{"deltaTime":120,"channel":0,"type":"channel","noteNumber":72,"velocity":0,"subtype":"noteOff"},{"deltaTime":120,"channel":0,"type":"channel","noteNumber":70,"velocity":101,"subtype":"noteOn"},{"deltaTime":120,"channel":0,"type":"channel","noteNumber":70,"velocity":0,"subtype":"noteOff"},{"deltaTime":360,"channel":0,"type":"channel","noteNumber":57,"velocity":98,"subtype":"noteOn"},{"deltaTime":240,"channel":0,"type":"channel","noteNumber":60,"velocity":101,"subtype":"noteOn"},{"deltaTime":0,"channel":0,"type":"channel","noteNumber":72,"velocity":101,"subtype":"noteOn"},{"deltaTime":120,"channel":0,"type":"channel","noteNumber":72,"velocity":0,"subtype":"noteOff"},{"deltaTime":120,"channel":0,"type":"channel","noteNumber":57,"velocity":0,"subtype":"noteOff"},{"deltaTime":240,"channel":0,"type":"channel","noteNumber":60,"velocity":0,"subtype":"noteOff"},{"deltaTime":0,"channel":0,"type":"channel","noteNumber":69,"velocity":98,"subtype":"noteOn"},{"deltaTime":240,"channel":0,"type":"channel","noteNumber":77,"velocity":101,"subtype":"noteOn"},{"deltaTime":120,"channel":0,"type":"channel","noteNumber":77,"velocity":0,"subtype":"noteOff"},{"deltaTime":120,"channel":0,"type":"channel","noteNumber":69,"velocity":0,"subtype":"noteOff"},{"deltaTime":240,"channel":0,"type":"channel","noteNumber":53,"velocity":98,"subtype":"noteOn"},{"deltaTime":120,"channel":0,"type":"channel","noteNumber":53,"velocity":0,"subtype":"noteOff"},{"deltaTime":120,"channel":0,"type":"channel","noteNumber":62,"velocity":101,"subtype":"noteOn"},{"deltaTime":0,"channel":0,"type":"channel","noteNumber":70,"velocity":101,"subtype":"noteOn"},{"deltaTime":0,"channel":0,"type":"channel","noteNumber":74,"velocity":101,"subtype":"noteOn"},{"deltaTime":480,"channel":0,"type":"channel","noteNumber":62,"velocity":0,"subtype":"noteOff"},{"deltaTime":0,"channel":0,"type":"channel","noteNumber":70,"velocity":0,"subtype":"noteOff"},{"deltaTime":0,"channel":0,"type":"channel","noteNumber":74,"velocity":0,"subtype":"noteOff"},{"deltaTime":0,"channel":0,"type":"channel","noteNumber":72,"velocity":98,"subtype":"noteOn"},{"deltaTime":480,"channel":0,"type":"channel","noteNumber":72,"velocity":0,"subtype":"noteOff"},{"deltaTime":480,"channel":0,"type":"channel","noteNumber":74,"velocity":101,"subtype":"noteOn"},{"deltaTime":480,"channel":0,"type":"channel","noteNumber":74,"velocity":0,"subtype":"noteOff"},{"deltaTime":240,"channel":0,"type":"channel","noteNumber":70,"velocity":101,"subtype":"noteOn"},{"deltaTime":480,"channel":0,"type":"channel","noteNumber":70,"velocity":0,"subtype":"noteOff"},{"deltaTime":240,"channel":0,"type":"channel","noteNumber":53,"velocity":101,"subtype":"noteOn"},{"deltaTime":0,"channel":0,"type":"channel","noteNumber":67,"velocity":101,"subtype":"noteOn"},{"deltaTime":120,"channel":0,"type":"channel","noteNumber":53,"velocity":0,"subtype":"noteOff"},{"deltaTime":360,"channel":0,"type":"channel","noteNumber":67,"velocity":0,"subtype":"noteOff"},{"deltaTime":0,"channel":0,"type":"channel","noteNumber":69,"velocity":98,"subtype":"noteOn"},{"deltaTime":0,"channel":0,"type":"channel","noteNumber":77,"velocity":98,"subtype":"noteOn"},{"deltaTime":240,"channel":0,"type":"channel","noteNumber":65,"velocity":101,"subtype":"noteOn"},{"deltaTime":0,"channel":0,"type":"channel","noteNumber":67,"velocity":101,"subtype":"noteOn"},{"deltaTime":0,"channel":0,"type":"channel","noteNumber":72,"velocity":101,"subtype":"noteOn"},{"deltaTime":240,"channel":0,"type":"channel","noteNumber":69,"velocity":0,"subtype":"noteOff"},{"deltaTime":0,"channel":0,"type":"channel","noteNumber":77,"velocity":0,"subtype":"noteOff"},{"deltaTime":0,"channel":0,"type":"channel","noteNumber":77,"velocity":99,"subtype":"noteOn"},{"deltaTime":240,"channel":0,"type":"channel","noteNumber":65,"velocity":0,"subtype":"noteOff"},{"deltaTime":0,"channel":0,"type":"channel","noteNumber":67,"velocity":0,"subtype":"noteOff"},{"deltaTime":0,"channel":0,"type":"channel","noteNumber":72,"velocity":0,"subtype":"noteOff"},{"deltaTime":0,"channel":0,"type":"channel","noteNumber":53,"velocity":98,"subtype":"noteOn"},{"deltaTime":240,"channel":0,"type":"channel","noteNumber":57,"velocity":101,"subtype":"noteOn"},{"deltaTime":0,"channel":0,"type":"channel","noteNumber":65,"velocity":101,"subtype":"noteOn"},{"deltaTime":0,"channel":0,"type":"channel","noteNumber":77,"velocity":101,"subtype":"noteOn"},{"deltaTime":120,"channel":0,"type":"channel","noteNumber":57,"velocity":0,"subtype":"noteOff"},{"deltaTime":0,"channel":0,"type":"channel","noteNumber":77,"velocity":0,"subtype":"noteOff"},{"deltaTime":120,"channel":0,"type":"channel","noteNumber":53,"velocity":0,"subtype":"noteOff"},{"deltaTime":240,"channel":0,"type":"channel","noteNumber":65,"velocity":0,"subtype":"noteOff"},{"deltaTime":0,"channel":0,"type":"channel","noteNumber":77,"velocity":98,"subtype":"noteOn"},{"deltaTime":120,"channel":0,"type":"channel","noteNumber":77,"velocity":0,"subtype":"noteOff"},{"deltaTime":120,"channel":0,"type":"channel","noteNumber":57,"velocity":101,"subtype":"noteOn"},{"deltaTime":240,"channel":0,"type":"channel","noteNumber":77,"velocity":0,"subtype":"noteOff"},{"deltaTime":0,"channel":0,"type":"channel","noteNumber":67,"velocity":99,"subtype":"noteOn"},{"deltaTime":240,"channel":0,"type":"channel","noteNumber":57,"velocity":0,"subtype":"noteOff"},{"deltaTime":0,"channel":0,"type":"channel","noteNumber":62,"velocity":98,"subtype":"noteOn"},{"deltaTime":0,"channel":0,"type":"channel","noteNumber":67,"velocity":0,"subtype":"noteOff"},{"deltaTime":0,"channel":0,"type":"channel","noteNumber":65,"velocity":98,"subtype":"noteOn"},{"deltaTime":240,"channel":0,"type":"channel","noteNumber":58,"velocity":101,"subtype":"noteOn"},{"deltaTime":240,"channel":0,"type":"channel","noteNumber":62,"velocity":0,"subtype":"noteOff"},{"deltaTime":0,"channel":0,"type":"channel","noteNumber":65,"velocity":0,"subtype":"noteOff"},{"deltaTime":0,"channel":0,"type":"channel","noteNumber":67,"velocity":99,"subtype":"noteOn"},{"deltaTime":240,"channel":0,"type":"channel","noteNumber":58,"velocity":0,"subtype":"noteOff"},{"deltaTime":240,"channel":0,"type":"channel","noteNumber":65,"velocity":101,"subtype":"noteOn"},{"deltaTime":0,"channel":0,"type":"channel","noteNumber":69,"velocity":101,"subtype":"noteOn"},{"deltaTime":0,"channel":0,"type":"channel","noteNumber":77,"velocity":101,"subtype":"noteOn"},{"deltaTime":480,"channel":0,"type":"channel","noteNumber":65,"velocity":0,"subtype":"noteOff"},{"deltaTime":0,"channel":0,"type":"channel","noteNumber":69,"velocity":0,"subtype":"noteOff"},{"deltaTime":0,"channel":0,"type":"channel","noteNumber":77,"velocity":0,"subtype":"noteOff"},{"deltaTime":0,"channel":0,"type":"channel","noteNumber":67,"velocity":98,"subtype":"noteOn"},{"deltaTime":0,"channel":0,"type":"channel","noteNumber":67,"velocity":0,"subtype":"noteOff"},{"deltaTime":0,"channel":0,"type":"channel","noteNumber":70,"velocity":98,"subtype":"noteOn"},{"deltaTime":240,"channel":0,"type":"channel","noteNumber":77,"velocity":101,"subtype":"noteOn"},{"deltaTime":240,"channel":0,"type":"channel","noteNumber":67,"velocity":0,"subtype":"noteOff"},{"deltaTime":0,"channel":0,"type":"channel","noteNumber":70,"velocity":0,"subtype":"noteOff"},{"deltaTime":0,"channel":0,"type":"channel","noteNumber":72,"velocity":99,"subtype":"noteOn"},{"deltaTime":240,"channel":0,"type":"channel","noteNumber":77,"velocity":0,"subtype":"noteOff"},{"deltaTime":240,"channel":0,"type":"channel","noteNumber":53,"velocity":101,"subtype":"noteOn"},{"deltaTime":0,"channel":0,"type":"channel","noteNumber":60,"velocity":101,"subtype":"noteOn"},{"deltaTime":480,"channel":0,"type":"channel","noteNumber":53,"velocity":0,"subtype":"noteOff"},{"deltaTime":0,"channel":0,"type":"channel","noteNumber":60,"velocity":0,"subtype":"noteOff"},{"deltaTime":0,"channel":0,"type":"channel","noteNumber":55,"velocity":98,"subtype":"noteOn"},{"deltaTime":0,"channel":0,"type":"channel","noteNumber":72,"velocity":0,"subtype":"noteOff"},{"deltaTime":0,"channel":0,"type":"channel","noteNumber":69,"velocity":98,"subtype":"noteOn"},{"deltaTime":120,"channel":0,"type":"channel","noteNumber":55,"velocity":0,"subtype":"noteOff"},{"deltaTime":120,"channel":0,"type":"channel","noteNumber":67,"velocity":101,"subtype":"noteOn"},{"deltaTime":240,"channel":0,"type":"channel","noteNumber":69,"velocity":0,"subtype":"noteOff"},{"deltaTime":0,"channel":0,"type":"channel","noteNumber":77,"velocity":99,"subtype":"noteOn"},{"deltaTime":240,"channel":0,"type":"channel","noteNumber":67,"velocity":0,"subtype":"noteOff"},{"deltaTime":480,"channel":0,"type":"channel","noteNumber":77,"velocity":0,"subtype":"noteOff"},{"deltaTime":0,"channel":0,"type":"channel","noteNumber":70,"velocity":99,"subtype":"noteOn"},{"deltaTime":240,"channel":0,"type":"channel","noteNumber":67,"velocity":98,"subtype":"noteOn"},{"deltaTime":0,"channel":0,"type":"channel","noteNumber":70,"velocity":0,"subtype":"noteOff"},{"deltaTime":0,"channel":0,"type":"channel","noteNumber":69,"velocity":98,"subtype":"noteOn"},{"deltaTime":240,"channel":0,"type":"channel","noteNumber":62,"velocity":101,"subtype":"noteOn"},{"deltaTime":0,"channel":0,"type":"channel","noteNumber":72,"velocity":101,"subtype":"noteOn"},{"deltaTime":120,"channel":0,"type":"channel","noteNumber":72,"velocity":0,"subtype":"noteOff"},{"deltaTime":120,"channel":0,"type":"channel","noteNumber":67,"velocity":0,"subtype":"noteOff"},{"deltaTime":0,"channel":0,"type":"channel","noteNumber":69,"velocity":0,"subtype":"noteOff"},{"deltaTime":0,"channel":0,"type":"channel","noteNumber":70,"velocity":99,"subtype":"noteOn"},{"deltaTime":240,"channel":0,"type":"channel","noteNumber":62,"velocity":0,"subtype":"noteOff"},{"deltaTime":240,"channel":0,"type":"channel","noteNumber":53,"velocity":101,"subtype":"noteOn"},{"deltaTime":0,"channel":0,"type":"channel","noteNumber":72,"velocity":101,"subtype":"noteOn"},{"deltaTime":120,"channel":0,"type":"channel","noteNumber":53,"velocity":0,"subtype":"noteOff"},{"deltaTime":0,"channel":0,"type":"channel","noteNumber":72,"velocity":0,"subtype":"noteOff"},{"deltaTime":120,"channel":0,"type":"channel","noteNumber":70,"velocity":0,"subtype":"noteOff"},{"deltaTime":0,"channel":0,"type":"channel","noteNumber":70,"velocity":99,"subtype":"noteOn"},{"deltaTime":240,"channel":0,"type":"channel","noteNumber":74,"velocity":98,"subtype":"noteOn"},{"deltaTime":120,"channel":0,"type":"channel","noteNumber":74,"velocity":0,"subtype":"noteOff"},{"deltaTime":120,"channel":0,"type":"channel","noteNumber":72,"velocity":101,"subtype":"noteOn"},{"deltaTime":240,"channel":0,"type":"channel","noteNumber":70,"velocity":0,"subtype":"noteOff"},{"deltaTime":240,"channel":0,"type":"channel","noteNumber":72,"velocity":0,"subtype":"noteOff"},{"deltaTime":1,"type":"meta","subtype":"endOfTrack"}]]}